<svg xmlns="http://www.w3.org/2000/svg" viewBox="0 0 100 90" fill="none">
  <path fill-rule="evenodd" clip-rule="evenodd" d="M75.5115 10.8485L91.3561 38.3267L85.7177 69.5876L61.4512 90H29.7621L5.49564 69.5876L0 38.3267L15.8446 10.8485L45.678 0L75.5115 10.8485ZM45.678 62.4504L59.7383 86.7883V60.0238H31.6178V86.7883L45.678 62.4504ZM29.8335 58.2395H61.594V84.0048L69.2308 60.452L45.678 43.3941L22.1253 60.452L29.8335 84.0761V58.2395ZM45.678 41.1102L71.3006 59.8097L64.2347 81.6495L75.226 62.4504L60.452 36.8279H30.8327L16.0587 62.4504L27.05 81.6495L19.9841 59.8097L45.678 41.1102ZM58.3822 88.073L45.678 66.0904L32.9738 88.073H58.3822ZM61.5226 34.9722L77.3672 62.4504L67.5892 79.3656L79.2942 64.663L72.6566 35.4719L45.678 22.4822L18.6281 35.5432L11.9905 64.7343L23.6955 79.3656L13.9175 62.4504L29.8335 34.9722H61.5226ZM74.2268 34.1872L81.2926 65.1626L71.6574 77.1531L82.0777 66.7328V36.5424L60.7375 15.2022H30.5472L9.20698 36.5424V66.7328L19.6987 77.2244L10.0634 65.1626L17.1293 34.2585L45.678 20.4837L74.2268 34.1872ZM83.9334 67.5178L76.2966 75.1546L84.1475 68.5884L89.429 38.6836L74.2268 12.3473L45.678 1.92704L17.1293 12.3473L1.92704 38.6836L7.13719 68.5884L14.9881 75.1546L7.35131 67.5178V35.8287L29.8335 13.3466H61.5226L83.9334 35.8287V67.5178Z" fill="black"></path>
  <!-- <path d="M108.485 11.3481V24.3378H111.269L111.412 23.9096L116.408 14.4885L116.265 15.9159V24.3378H119.048V11.3481H116.479L116.265 11.7764L111.197 21.2688H111.126L111.269 19.9841V11.3481H108.485Z" fill="black"></path> -->
  <!-- <path d="M121.689 24.3378V14.3458H124.33V18.5567H127.399V14.3458H130.04V24.3378H127.399V19.8414H124.33V24.3378H121.689Z" fill="black"></path> -->
  <!-- <path d="M131.967 19.4131C131.967 21.1261 132.324 22.4108 133.18 23.2672C133.965 24.1237 135.178 24.5519 136.749 24.6233C137.534 24.6233 138.247 24.4092 138.747 24.1237C139.247 23.8382 139.675 23.4813 139.889 23.1245L139.944 23.034L139.978 22.9779L140.019 22.9103C140.159 22.6806 140.246 22.5379 140.246 22.4821L139.318 21.9112C139.318 21.9825 139.247 22.1253 139.033 22.3394C138.818 22.5535 138.604 22.7676 138.247 22.9817C137.891 23.1959 137.534 23.2672 137.034 23.2672C136.392 23.2672 135.821 22.9817 135.464 22.4108C135.107 21.8398 134.893 20.8406 134.893 19.3418C134.893 18.2712 135.036 17.4861 135.178 16.9151C135.321 16.3442 135.607 15.9873 135.892 15.7732C136.178 15.5591 136.606 15.4877 137.106 15.4877C137.342 15.4877 137.578 15.5367 137.856 15.594C137.913 15.6059 137.972 15.6182 138.033 15.6304C138.174 15.6867 138.304 15.7319 138.427 15.7748C138.615 15.8406 138.788 15.9009 138.961 15.9873C139.247 16.0587 139.389 16.13 139.461 16.2014L139.746 14.9167C139.702 14.8726 139.604 14.8285 139.467 14.7675C139.383 14.7299 139.284 14.6857 139.175 14.6312C138.89 14.4885 138.533 14.3457 138.105 14.2744C137.676 14.203 137.248 14.1316 136.82 14.1316C135.321 14.1316 134.108 14.6312 133.251 15.5591C132.395 16.4869 131.967 17.7716 131.967 19.4131Z" fill="black"></path> -->
  <!-- <path d="M143.386 24.3378V15.7732H140.531V14.3458H148.953V15.7732H146.098V24.3378H143.386Z" fill="black"></path> -->
  <!-- <path d="M150.309 14.3458V24.3378H152.379L156.305 17.3434V24.3378H158.945V14.3458H156.59L152.95 20.912V14.3458H150.309Z" fill="black"></path> -->
  <!-- <path d="M163.299 24.3378V15.7732H160.444V14.3458H168.866V15.7732H166.011V24.3378H163.299Z" fill="black"></path> -->
  <!-- <path d="M169.964 29.414C170.043 29.4293 170.132 29.4467 170.222 29.4766C170.436 29.548 170.722 29.548 170.936 29.4766C171.578 29.4766 172.078 29.3338 172.577 28.9056C173.077 28.5487 173.505 27.9778 173.862 27.2641C174.219 26.5503 174.576 25.6225 175.004 24.4805L178.501 14.2744H176.86L174.79 21.4116L172.363 14.2744H169.151L173.434 24.6947C173.006 25.908 172.577 26.6931 172.22 27.1927C171.864 27.6923 171.364 27.9064 170.793 27.9064C170.579 27.9064 170.365 27.9064 170.151 27.835C170.069 27.8078 169.997 27.7805 169.937 27.7572C169.838 27.7195 169.767 27.6923 169.722 27.6923L169.508 29.2625C169.508 29.2625 169.58 29.2625 169.722 29.3338C169.764 29.3753 169.854 29.3927 169.964 29.414Z" fill="black"></path> -->
  <!-- <path d="M181.784 24.3378V15.7732H178.929V14.3458H187.351V15.7732H184.496V24.3378H181.784Z" fill="black"></path> -->
  <!-- <path fill-rule="evenodd" clip-rule="evenodd" d="M107.558 38.8263C107.558 40.4679 107.986 41.7526 108.771 42.6804C109.556 43.6082 110.698 44.0365 112.197 44.0365C113.624 44.0365 114.766 43.6082 115.623 42.6804C116.479 41.7526 116.907 40.4679 116.907 38.8263C116.907 37.1848 116.479 35.9001 115.694 34.9722C114.837 34.0444 113.695 33.6162 112.197 33.6162C110.698 33.6162 109.556 34.0444 108.771 34.9722C107.986 35.9001 107.558 37.1848 107.558 38.8263ZM113.838 41.1102C113.695 41.6812 113.553 42.0381 113.267 42.3235C112.982 42.609 112.696 42.6804 112.197 42.6804C111.768 42.6804 111.412 42.609 111.126 42.3235C110.841 42.1094 110.698 41.6812 110.555 41.1102C110.412 40.5392 110.341 39.8255 110.341 38.8263C110.341 37.8985 110.412 37.1134 110.555 36.5424C110.698 35.9714 110.841 35.5432 111.126 35.3291C111.412 35.115 111.768 34.9722 112.197 34.9722C112.625 34.9722 112.982 35.115 113.267 35.3291C113.553 35.5432 113.695 35.9714 113.838 36.5424C113.981 37.1134 114.052 37.8271 114.052 38.8263C114.052 39.7542 113.981 40.5392 113.838 41.1102Z" fill="black"></path> -->
  <!-- <path d="M118.692 43.8224V33.8303H126.971V43.8224H124.33V35.2577H121.332V43.8224H118.692Z" fill="black"></path> -->
  <!-- <path fill-rule="evenodd" clip-rule="evenodd" d="M128.826 39.0404C128.826 40.7534 129.183 41.9667 130.04 42.8231C130.825 43.6082 131.967 44.0365 133.537 44.1078C134.322 44.1078 134.964 43.9651 135.464 43.6796C136.035 43.3941 136.392 43.1086 136.677 42.7518C136.761 42.6475 136.832 42.5615 136.891 42.4902C137.034 42.318 137.105 42.2312 137.105 42.1808L136.178 41.4671C136.178 41.4671 136.106 41.6098 135.892 41.8239C135.678 42.0381 135.393 42.2522 135.036 42.4663C134.679 42.6804 134.251 42.7518 133.822 42.7518C133.037 42.7518 132.538 42.4663 132.181 41.9667C131.895 41.4671 131.681 40.6106 131.681 39.3973H137.034C137.034 39.3259 137.034 39.1832 137.105 38.9691C137.177 38.755 137.177 38.4696 137.177 38.1128C137.177 36.6854 136.891 35.5432 136.178 34.7581C135.464 33.973 134.465 33.6162 133.251 33.6162C131.895 33.6162 130.825 34.1158 130.04 35.0436C129.255 35.9714 128.826 37.3275 128.826 39.0404ZM134.679 37.6844V38.1126H131.681C131.681 37.3275 131.753 36.6138 131.895 36.1856C132.038 35.686 132.181 35.4005 132.395 35.1863C132.609 34.9722 132.895 34.9009 133.251 34.9009C133.822 34.9009 134.179 35.115 134.393 35.5432C134.536 35.9714 134.679 36.6852 134.679 37.6844Z" fill="black"></path> -->
  <!-- <path fill-rule="evenodd" clip-rule="evenodd" d="M141.031 33.8304L141.388 34.7582H141.459L141.816 34.4014C141.96 34.257 142.17 34.1451 142.4 34.0219C142.511 33.9623 142.628 33.9001 142.744 33.8304C143.172 33.6877 143.6 33.5449 144.171 33.5449C145.385 33.5449 146.312 33.9731 146.955 34.901C147.669 35.8288 147.954 37.0421 147.954 38.5409C147.954 39.6115 147.811 40.5394 147.454 41.3958C147.169 42.2523 146.669 42.8233 146.098 43.3229C145.527 43.7511 144.814 43.9652 143.957 43.9652C143.458 43.9652 143.029 43.8938 142.601 43.8225C142.487 43.7767 142.38 43.7383 142.28 43.7025C142.069 43.6267 141.89 43.5626 141.745 43.4656C141.531 43.3229 141.459 43.2515 141.459 43.2515H141.388V48.8185L138.747 48.8899V33.8304H141.031ZM144.243 42.1809C144.528 41.9668 144.742 41.5386 144.885 40.9676C145.028 40.3966 145.099 39.6829 145.099 38.6837C145.099 37.7559 145.028 37.0421 144.885 36.5425C144.742 36.0429 144.528 35.6861 144.243 35.472C143.957 35.2578 143.6 35.1865 143.172 35.1865C142.887 35.1865 142.601 35.2578 142.316 35.4006C142.231 35.4569 142.147 35.5021 142.067 35.5449C141.944 35.6107 141.831 35.671 141.745 35.7574L141.459 36.0429V41.8954C141.459 41.9668 141.531 42.0382 141.673 42.1095C141.745 42.1809 141.959 42.3237 142.173 42.395C142.387 42.4664 142.673 42.5378 142.958 42.5378C143.529 42.5378 143.957 42.395 144.243 42.1809Z" fill="black"></path> -->
  <!-- <path fill-rule="evenodd" clip-rule="evenodd" d="M149.239 39.0404C149.239 40.7534 149.596 41.9667 150.452 42.8231C151.237 43.6082 152.379 44.0365 153.878 44.1078C154.663 44.1078 155.305 43.9651 155.805 43.6796C156.376 43.3941 156.733 43.1086 157.018 42.7518C157.102 42.6472 157.173 42.561 157.232 42.4896C157.375 42.3174 157.447 42.2313 157.447 42.1808L156.519 41.4671C156.519 41.4671 156.447 41.6098 156.233 41.8239C156.019 42.0381 155.734 42.2522 155.377 42.4663C155.02 42.6804 154.592 42.7518 154.163 42.7518C153.378 42.7518 152.879 42.4663 152.522 41.9667C152.236 41.4671 152.022 40.6106 152.022 39.3973H157.447C157.447 39.3259 157.447 39.1832 157.518 38.9691C157.589 38.7549 157.589 38.4695 157.589 38.1126C157.589 36.6852 157.304 35.5432 156.59 34.7581C155.876 33.973 154.877 33.6162 153.664 33.6162C152.308 33.6162 151.237 34.1158 150.452 35.0436C149.667 35.9714 149.239 37.3275 149.239 39.0404ZM155.091 37.6844V38.1126H152.094C152.094 37.3275 152.165 36.6138 152.308 36.1856C152.45 35.686 152.593 35.4005 152.807 35.1863C153.021 34.9722 153.307 34.9009 153.664 34.9009C154.235 34.9009 154.592 35.115 154.806 35.5432C155.02 35.9714 155.091 36.6852 155.091 37.6844Z" fill="black"></path> -->
  <!-- <path d="M158.374 43.8224L161.229 38.184L158.803 33.8303H160.658L162.585 37.6844L164.013 37.7558V33.9017H166.653V37.7558L168.081 37.6844L170.222 33.9017H171.935L169.437 38.3267L172.292 43.9651H169.437L167.296 39.1832H166.653V43.9651H164.013V39.1832L163.442 39.1118L161.301 43.9651H158.374V43.8224Z" fill="black"></path> -->
  <!-- <path fill-rule="evenodd" clip-rule="evenodd" d="M173.006 41.3958C173.006 42.1809 173.291 42.8232 173.862 43.3228C174.433 43.8224 175.218 44.0365 176.003 43.9652C176.646 43.9652 177.145 43.8938 177.502 43.6797C177.93 43.5369 178.144 43.3228 178.358 43.1087C178.573 42.8946 178.644 42.8232 178.644 42.7519H178.715C178.787 43.1801 178.929 43.4656 179.144 43.6797C179.358 43.8938 179.715 43.9652 180.071 43.9652C180.286 43.9652 180.571 43.9652 180.928 43.8938L181.784 43.6797C181.927 43.644 182.034 43.6083 182.114 43.5815C182.195 43.5548 182.248 43.5369 182.284 43.5369L182.213 42.4664C182.141 42.4664 182.07 42.4664 181.927 42.5377C181.784 42.6091 181.642 42.6091 181.57 42.6091C181.285 42.6091 181.142 42.2522 181.142 41.5385V36.9707C181.142 35.686 180.785 34.7582 180.143 34.2586C179.5 33.759 178.573 33.4735 177.288 33.4735C176.86 33.4735 176.36 33.5449 175.932 33.6876C175.504 33.759 175.075 33.9017 174.79 34.0445C174.681 34.099 174.582 34.1431 174.498 34.1807C174.362 34.2417 174.263 34.2858 174.219 34.33L174.504 35.6147C174.576 35.6147 174.718 35.5433 175.004 35.4007C175.289 35.258 175.575 35.1151 175.932 35.0437C175.97 35.036 176.007 35.0284 176.044 35.0208L176.11 35.0073C176.387 34.9499 176.623 34.9009 176.86 34.9009C177.431 34.9009 177.859 35.0437 178.144 35.4005C178.358 35.7574 178.501 36.3284 178.501 37.2562V37.8272C177.002 37.9699 175.718 38.3268 174.647 38.8264C173.577 39.3974 173.006 40.2538 173.006 41.3958ZM178.358 41.9668C178.287 42.1095 178.073 42.3236 177.859 42.4664C177.573 42.6091 177.359 42.6805 177.002 42.7519C176.646 42.7519 176.36 42.6091 176.146 42.3236C175.932 42.0381 175.86 41.6099 175.86 41.1103C175.86 40.4679 176.146 39.9683 176.574 39.6115C177.002 39.2546 177.645 39.0405 178.573 38.9691V41.6099C178.573 41.6603 178.537 41.7108 178.466 41.8116C178.436 41.8534 178.4 41.904 178.358 41.9668Z" fill="black"></path> -->
  <!-- <path fill-rule="evenodd" clip-rule="evenodd" d="M188.993 42.8231C188.279 42.0381 187.851 40.8247 187.78 39.3259H186.566V43.8224H183.925V33.8303H186.566V38.0412H187.78C187.922 36.6138 188.279 35.5432 188.993 34.7581C189.707 33.973 190.706 33.6162 191.919 33.6162C193.418 33.6162 194.56 34.0444 195.274 34.9722C196.059 35.9001 196.416 37.1848 196.416 38.8263C196.416 40.5392 196.059 41.8239 195.274 42.6804C194.489 43.6082 193.418 44.0365 191.919 44.0365C190.706 44.0365 189.778 43.6082 188.993 42.8231ZM193.418 41.8239C193.703 41.1816 193.775 40.1824 193.775 38.8263C193.775 37.8271 193.703 37.1134 193.632 36.5424C193.561 35.9714 193.347 35.5432 193.132 35.3291C192.918 35.0436 192.561 34.9722 192.062 34.9722C191.634 34.9722 191.277 35.115 191.063 35.3291C190.849 35.6146 190.634 35.9714 190.563 36.5424C190.492 37.1134 190.42 37.8985 190.42 38.8263C190.42 40.2538 190.563 41.253 190.777 41.8953C190.991 42.5377 191.491 42.8231 192.133 42.8231C192.704 42.7518 193.204 42.4663 193.418 41.8239Z" fill="black"></path> -->
  <!-- <path d="M210.333 43.7508L210.69 46.7485H212.046L212.332 42.3234H210.975V33.7588H208.335V42.3234H205.979V33.7588H203.339V42.3234H200.983V33.7588H198.343V43.7508H210.333Z" fill="black"></path> -->
  <!-- <path d="M213.902 43.8224V33.8303H216.542V40.3965L220.182 33.8303H222.538V43.8224H219.897V36.8279L215.971 43.8224H213.902Z" fill="black"></path> -->
  <!-- <path d="M226.963 38.9691L223.894 43.8224V43.8938H225.749L227.962 40.1824L229.818 43.8938H233.029L229.818 38.3981L232.601 33.8303H230.745L228.89 37.3989L227.248 33.8303H224.036L226.963 38.9691Z" fill="black"></path> -->
  <!-- <path d="M110.055 63.2357V54.671H107.201V53.2436H115.623V54.671H112.768V63.2357H110.055Z" fill="black"></path> -->
  <!-- <path fill-rule="evenodd" clip-rule="evenodd" d="M116.408 58.4534C116.408 60.1663 116.765 61.3796 117.621 62.2361C118.477 63.0212 119.619 63.4494 121.118 63.5208C121.903 63.5208 122.474 63.378 123.045 63.0925C123.616 62.807 123.973 62.5215 124.259 62.1647C124.342 62.0602 124.414 61.974 124.473 61.9026C124.615 61.7303 124.687 61.6442 124.687 61.5937L123.759 60.88C123.759 60.88 123.688 61.0227 123.473 61.2369C123.259 61.451 122.974 61.6651 122.617 61.8792C122.26 62.0933 121.832 62.1647 121.404 62.1647C120.619 62.1647 120.119 61.8792 119.762 61.3796C119.477 60.88 119.263 60.0235 119.263 58.8102H124.615C124.615 58.7388 124.615 58.5961 124.687 58.382C124.758 58.1679 124.758 57.8824 124.758 57.5255C124.758 56.0981 124.473 54.9561 123.759 54.171C123.045 53.3859 122.046 53.0291 120.833 53.0291C119.477 53.0291 118.406 53.5287 117.621 54.4565C116.836 55.3844 116.408 56.7404 116.408 58.4534ZM122.332 57.0973V57.5255H119.334C119.334 56.7404 119.405 56.0267 119.548 55.5985C119.691 55.0989 119.833 54.8134 120.048 54.5993C120.262 54.3852 120.547 54.3138 120.904 54.3138C121.475 54.3138 121.832 54.5279 122.046 54.9561C122.189 55.3844 122.332 56.0981 122.332 57.0973Z" fill="black"></path> -->
  <!-- <path d="M125.472 63.2357L128.541 58.3824L125.615 53.2436H128.826L130.468 56.8122L132.324 53.2436H134.179L131.396 57.8114L134.607 63.307H131.396L129.54 59.5957L127.328 63.307H125.472V63.2357Z" fill="black"></path> -->
  <!-- <path d="M135.964 53.2436V63.2357H138.604V58.7392H141.673V63.2357H144.314V53.2436H141.673V57.4545H138.604V53.2436H135.964Z" fill="black"></path> -->
  <!-- <path fill-rule="evenodd" clip-rule="evenodd" d="M147.454 62.0933C146.669 61.1655 146.241 59.8808 146.241 58.2392C146.241 56.5977 146.669 55.313 147.454 54.3852C148.24 53.4573 149.381 53.0291 150.88 53.0291C152.379 53.0291 153.521 53.4573 154.378 54.3852C155.163 55.313 155.591 56.5977 155.591 58.2392C155.591 59.8808 155.163 61.1655 154.306 62.0933C153.45 63.0212 152.308 63.4494 150.88 63.4494C149.381 63.4494 148.24 63.0212 147.454 62.0933ZM152.522 60.5231C152.665 59.9522 152.736 59.1671 152.736 58.2392C152.736 57.24 152.665 56.5263 152.522 55.9553C152.379 55.3844 152.236 54.9561 151.951 54.742C151.665 54.5279 151.309 54.3852 150.88 54.3852C150.452 54.3852 150.095 54.5279 149.81 54.742C149.524 54.9561 149.382 55.3844 149.239 55.9553C149.096 56.5263 149.025 57.3114 149.025 58.2392C149.025 59.2384 149.096 59.9522 149.239 60.5231C149.382 61.0941 149.524 61.5223 149.81 61.7365C150.095 62.0219 150.452 62.0933 150.88 62.0933C151.309 62.1647 151.665 62.0219 151.951 61.7365C152.236 61.451 152.379 61.0941 152.522 60.5231Z" fill="black"></path> -->
  <!-- <path d="M156.376 61.8082L156.305 63.3784C156.519 63.4498 156.661 63.4498 156.804 63.4498C157.946 63.4498 158.874 62.6647 159.445 61.0945C160.016 59.4529 160.373 57.3118 160.444 54.671H162.228V63.2357H164.869V53.2436H158.874C158.874 56.0271 158.731 58.0969 158.374 59.5957C158.017 61.0945 157.446 61.8082 156.59 61.8082H156.376Z" fill="black"></path> -->
  <!-- <path fill-rule="evenodd" clip-rule="evenodd" d="M167.938 62.0933C167.153 61.1655 166.725 59.8808 166.725 58.2392C166.725 56.5977 167.153 55.313 167.938 54.3852C168.723 53.4573 169.865 53.0291 171.364 53.0291C172.863 53.0291 174.005 53.4573 174.861 54.3852C175.646 55.313 176.075 56.5977 176.075 58.2392C176.075 59.8808 175.646 61.1655 174.79 62.0933C173.933 63.0212 172.791 63.4494 171.364 63.4494C169.937 63.4494 168.723 63.0212 167.938 62.0933ZM173.006 60.5231C173.148 59.9522 173.22 59.1671 173.22 58.2392C173.22 57.24 173.148 56.5263 173.006 55.9553C172.863 55.3844 172.72 54.9561 172.435 54.742C172.149 54.5279 171.792 54.3852 171.364 54.3852C170.936 54.3852 170.579 54.5279 170.293 54.742C170.008 54.9561 169.865 55.3844 169.722 55.9553C169.58 56.5263 169.508 57.3114 169.508 58.2392C169.508 59.2384 169.58 59.9522 169.722 60.5231C169.865 61.0941 170.008 61.5223 170.293 61.7365C170.579 62.0219 170.936 62.0933 171.364 62.0933C171.864 62.1647 172.22 62.0219 172.435 61.7365C172.72 61.451 172.863 61.0941 173.006 60.5231Z" fill="black"></path> -->
  <!-- <path d="M177.859 53.2436V63.2357H180.5V54.671H183.854V53.2436H177.859Z" fill="black"></path> -->
  <!-- <path d="M185.353 63.2357V53.2436H187.994V59.8098L191.634 53.2436H193.989V63.2357H191.277V56.2412L187.351 63.2357H185.353Z" fill="black"></path> -->
  <!-- <path d="M196.344 53.2435V63.2356H198.414L202.339 56.2411V63.2356H204.98V53.2435H202.625L198.985 59.8097V53.2435H196.344Z" fill="black"></path> -->
  <!-- <path d="M197.629 49.5322C197.629 49.9604 197.843 50.5314 198.2 51.1023C198.557 51.6733 199.413 51.9588 200.841 51.9588C202.268 51.9588 203.125 51.6733 203.481 51.1023C203.838 50.5314 204.052 49.9604 204.052 49.5322L201.983 49.3181V49.5322C201.983 49.5322 202.054 49.6035 202.054 49.6749V49.9604C202.054 50.1745 201.911 50.3886 201.768 50.5314C201.554 50.6741 201.269 50.7455 200.841 50.7455C200.412 50.7455 200.056 50.6741 199.913 50.5314C199.699 50.3886 199.627 50.1745 199.627 49.9604V49.6749C199.699 49.6035 199.699 49.5322 199.699 49.5322V49.3181L197.629 49.5322Z" fill="black"></path> -->
  <!-- <path fill-rule="evenodd" clip-rule="evenodd" d="M107.415 83.1483H108.771C109.342 82.0063 109.699 80.5075 109.984 78.866C110.198 77.153 110.341 74.7264 110.341 71.586H117.835V83.1483H119.477L118.977 88.0729H117.407L116.979 84.5757H109.841L109.056 88.0729H107.7L107.415 83.1483ZM115.052 83.1483V73.0135H111.911C111.911 75.5828 111.768 77.6526 111.483 79.1514C111.269 80.6502 110.841 82.0063 110.341 83.1483H115.052Z" fill="black"></path> -->
  <!-- <path d="M121.475 71.586V84.5757H124.187V73.0135H128.755V71.586H121.475Z" fill="black"></path> -->
  <!-- <path d="M132.466 84.5757V73.0135H128.969V71.586H138.747V73.0135H135.25V84.5757H132.466Z" fill="black"></path> -->
  <!-- <path d="M140.888 84.5043C141.031 84.5757 141.245 84.6471 141.531 84.7184C141.816 84.7898 142.173 84.7898 142.601 84.7898C143.529 84.7898 144.385 84.433 145.099 83.7906C145.813 83.1483 146.455 82.0777 147.026 80.5789L150.523 71.586H148.668L146.312 78.866H146.241L142.744 71.586H139.532L144.885 81.7208C144.6 82.2204 144.243 82.5773 143.886 82.7914C143.529 83.0055 143.101 83.0769 142.601 83.0769C142.316 83.0769 142.03 83.0769 141.816 83.0055C141.531 82.9342 141.388 82.8628 141.245 82.7914C141.191 82.7641 141.146 82.7369 141.109 82.7136C141.048 82.6759 141.004 82.6487 140.96 82.6487L140.603 84.3616L140.888 84.5043Z" fill="black"></path> -->
</svg>