<svg xmlns="http://www.w3.org/2000/svg" viewBox="0 0 100 90" fill="none">
  <path fill-rule="evenodd" clip-rule="evenodd" d="M75.5115 10.8485L91.3561 38.3267L85.7177 69.5876L61.4512 90H29.7621L5.49564 69.5876L0 38.3267L15.8446 10.8485L45.678 0L75.5115 10.8485ZM45.678 62.4504L59.7383 86.7883V60.0238H31.6178V86.7883L45.678 62.4504ZM29.8335 58.2395H61.594V84.0048L69.2308 60.452L45.678 43.3941L22.1253 60.452L29.8335 84.0761V58.2395ZM45.678 41.1102L71.3006 59.8097L64.2347 81.6495L75.226 62.4504L60.452 36.8279H30.8327L16.0587 62.4504L27.05 81.6495L19.9841 59.8097L45.678 41.1102ZM58.3822 88.073L45.678 66.0904L32.9738 88.073H58.3822ZM61.5226 34.9722L77.3672 62.4504L67.5892 79.3656L79.2942 64.663L72.6566 35.4719L45.678 22.4822L18.6281 35.5432L11.9905 64.7343L23.6955 79.3656L13.9175 62.4504L29.8335 34.9722H61.5226ZM74.2268 34.1872L81.2926 65.1626L71.6574 77.1531L82.0777 66.7328V36.5424L60.7375 15.2022H30.5472L9.20698 36.5424V66.7328L19.6987 77.2244L10.0634 65.1626L17.1293 34.2585L45.678 20.4837L74.2268 34.1872ZM83.9334 67.5178L76.2966 75.1546L84.1475 68.5884L89.429 38.6836L74.2268 12.3473L45.678 1.92704L17.1293 12.3473L1.92704 38.6836L7.13719 68.5884L14.9881 75.1546L7.35131 67.5178V35.8287L29.8335 13.3466H61.5226L83.9334 35.8287V67.5178Z" fill="black"></path>
</svg>